# xmcd
#
# Track frame offsets:
#	150
#	11699
#	22547
#	32898
#	43630
#	54582
#	65849
#	76829
#	89296
#	100409
#	110602
#	121222
#	131744
#	145671
#	162360
#	179331
#	194012
#	211655
#	222468
#	234510
#	248177
#	263473
#
# Disc length: 3727 seconds
#
# Revision: 1
# Processed by: cddbd v1.5.1PL0 Copyright (c) Steve Scherf et al.
# Submitted via: CDRider 2.1
#
DISCID=320e8d16
DTITLE=WIllie Mitchell - Soul Bag_Many Moods Of
DYEAR=2001
DGENRE=R&B
TTITLE0=Apollo X
TTITLE1=One mint julep
TTITLE2=I'm a midnight mover
TTITLE3=Cherry tree
TTITLE4=Young people
TTITLE5=Blue blue light
TTITLE6=Everyday people
TTITLE7=Knock on wood
TTITLE8=Grand slam
TTITLE9=Honey pot
TTITLE10=Hawaii five O
TTITLE11=Set free
TTITLE12=Breaking point
TTITLE13=Sometimes I wonder
TTITLE14=Black fox
TTITLE15=Roadhouse
TTITLE16=Sack o woe
TTITLE17=Too sweet
TTITLE18=White silver sands
TTITLE19=Midnight sun
TTITLE20=Cuddlin' up
TTITLE21=Something nice
EXTD=
EXTT0=
EXTT1=
EXTT2=
EXTT3=
EXTT4=
EXTT5=
EXTT6=
EXTT7=
EXTT8=
EXTT9=
EXTT10=
EXTT11=
EXTT12=
EXTT13=
EXTT14=
EXTT15=
EXTT16=
EXTT17=
EXTT18=
EXTT19=
EXTT20=
EXTT21=
PLAYORDER=
